<svg width="51" height="24" viewBox="0 0 51 24" fill="none" xmlns="http://www.w3.org/2000/svg">
<path d="M14.4012 8.22045C14.7048 8.42975 14.7523 8.85683 14.5216 9.14469L8.35321 16.8423C7.83021 17.497 6.83652 17.497 6.31352 16.8423L0.145111 9.14469C-0.0855614 8.85683 -0.038121 8.42959 0.265316 8.22011C1.34069 7.47773 3.88349 6 7.33337 6C10.7786 6 13.3246 7.47818 14.4012 8.22045Z" fill="#667080"/>
<path d="M49.3334 7.66665C49.3334 7.11436 48.8857 6.66665 48.3334 6.66665H47.3334V5.33331H43.3334V6.66665H42.3334C41.7811 6.66665 41.3334 7.11436 41.3334 7.66665V17.6667C41.3334 18.2189 41.7811 18.6667 42.3334 18.6667H48.3334C48.8857 18.6667 49.3334 18.2189 49.3334 17.6667V7.66665Z" fill="#667080"/>
<path d="M30.1953 6.47139C30.6153 6.05141 31.3334 6.34885 31.3334 6.94279V17.3333C31.3334 18.0697 30.7364 18.6667 30 18.6667H19.6095C19.0156 18.6667 18.7181 17.9486 19.1381 17.5286L30.1953 6.47139Z" fill="#667080"/>
</svg>
